<svg viewBox="0 0 1508.6 416.35" xmlns="http://www.w3.org/2000/svg">
  <path
    d="m1013.93 56.37v346.47c0 6.74 5.47 12.21 12.21 12.21h470.41c6.65 0 12.05-5.39 12.05-12.05v-346.83c0-6.7-5.43-12.12-12.12-12.12h-470.23c-6.8 0-12.32 5.51-12.32 12.32zm375.34 12.54c-37.7 48.78-74.17 98.39-108.36 145.4-1.11 1.53-3.36 1.59-4.57.13-40.87-49.52-82.96-98.35-125.28-145.37-1.69-1.87-.36-4.85 2.16-4.85h233.75c2.42 0 3.78 2.77 2.3 4.69zm-356.27 323.05v-324.82c0-1.61 1.3-2.91 2.91-2.91h80.2c.81 0 1.59.34 2.14.94 43 46.37 68.24 74.27 112.61 126.87 10.99 13.04 22.41 26.74 33.98 40.79.84 1.02.89 2.49.11 3.57-21.82 30.23-42.98 60.1-62.94 88.85-5.41 7.8-10.51 15.08-15.46 22.16-10.62 15.18-20.69 29.58-31.9 46.19-.54.8-1.45 1.29-2.42 1.29h-116.32c-1.61 0-2.91-1.3-2.91-2.91zm453.62 2.91h-301.57c-2.33 0-3.72-2.62-2.41-4.55 59.86-88.56 116.72-168.12 177.8-248.82 13.09-17.3 37.25-49.09 58.33-76.17.55-.71 1.4-1.12 2.29-1.12h65.55c1.61 0 2.91 1.3 2.91 2.91v324.83c0 1.61-1.3 2.91-2.91 2.91z" />
  <path
    d="m1140.91 184.86c-14.88-11.03-31.74-15.37-47.52-12.23-1.38.05-2.74.38-3.98.95-3.23.92-5.59 3.17-6.64 6.33-1.01 3.05-.65 6.57.94 9.44v93.24c0 1.47.24 2.84.73 4.09-.96 3.1-.64 6.63.94 9.43 1.74 3.07 4.78 4.83 8.34 4.83.38 0 .75-.02 1.16-.07 1.13.06 2.27-.09 3.38-.44 14.93-4.62 32.09-10.83 46.2-21.85 16.29-12.72 25.87-29.45 26.27-45.89.54-21.96-18.46-39.39-29.83-47.82zm9.38 50.65c-4.14 22.44-27.45 33.98-46.45 40.76v-83.36c8.38.08 17.25 3.35 25.83 9.57 5.53 4 23.36 18.22 20.62 33.03z" />
  <path
    d="m1375.45 193.5c-8.2 5.5-13.98 15.87-10.62 25.98 3.34 10.08 13.97 15.67 22.11 21.39 8.23 5.79 17.52 11.14 24.92 17.97 1.51 1.4 4.89 4.09 4.73 6.51-.18 2.61-4.81 4.34-6.72 5.24-18.86 8.8-40.96 10.78-61.41 8.56-5.65-.61-10.51 5.27-10.51 10.51 0 6.19 4.84 9.9 10.51 10.51 21.86 2.37 44.46-.4 64.96-8.43 8.6-3.37 17.53-7.69 21.82-16.39 4.7-9.53 1.67-19.64-4.8-27.45-6.45-7.78-15.83-13.18-24.01-18.94-4.6-3.24-9.2-6.47-13.8-9.71-1.78-1.25-3.72-2.41-5.39-3.82-.49-.41-1.22-1.37-1.74-1.89.46-.34 1.05-.94 1.34-1.15 1.85-1.28 3.95-2.23 5.95-3.22 4.77-2.36 9.62-4.59 14.52-6.66 10.38-4.38 21.06-8.04 31.85-11.23 12.95-3.82 7.44-24.12-5.59-20.27-10.22 3.02-20.29 6.49-30.15 10.53-9.31 3.81-19.57 6.32-27.96 11.95z" />
  <path
    d="m0 239.55c0-83.38 51.1-129.52 121.43-129.52s105.94 40.63 113.76 80.19c1.03 5.21-2.94 10.07-8.26 10.07h-4.26c-3.9 0-7.25-2.7-8.19-6.48-8.3-33.5-39.39-64.86-92.76-64.86-59.21 0-100.69 40.4-100.69 114.33v38.97c0 75.08 39.98 115.19 103.09 115.19 56.82 0 82.84-30.11 90.87-60.05.98-3.64 4.33-6.15 8.1-6.15h3.62c5.49 0 9.47 5.16 8.16 10.49-9.03 36.68-41.52 74.62-112.55 74.62s-122.32-46.42-122.32-131.81z" />
  <path
    d="m296.39 0h4.22c4.65 0 8.41 3.77 8.41 8.41v164.09h1.2c9.92-29.51 42.68-62.47 101.89-62.47s107.6 38.11 107.6 106.88v185.87c0 4.65-3.77 8.41-8.41 8.41h-4.22c-4.65 0-8.41-3.77-8.41-8.41v-183.57c0-51.29-32.46-90.26-88.97-90.26-66.73 0-100.69 50.15-100.69 102.01v171.82c0 4.65-3.77 8.41-8.41 8.41h-4.22c-4.65 0-8.41-3.77-8.41-8.41v-394.37c0-4.65 3.77-8.41 8.41-8.41z" />
  <path
    d="m664.33 416.35c-60.11 0-101.29-33.53-101.29-87.97 0-48.71 35.47-81.95 104.9-81.95h88.67c4.65 0 8.41-3.77 8.41-8.41v-35.14c0-51.01-34.26-74.22-84.76-74.22s-72.77 20.04-81.25 53.2c-.96 3.75-4.29 6.4-8.16 6.4h-4.03c-5.4 0-9.39-5.02-8.21-10.29 8.99-40.11 42.09-67.93 102.85-67.93s104.6 31.23 104.6 88.54v204.2c0 4.65-3.77 8.41-8.41 8.41h-4.22c-4.65 0-8.41-3.77-8.41-8.41v-40.59h-1.2c-6.91 18.05-37.57 54.16-99.49 54.16zm100.69-104.59v-38.87c0-4.65-3.77-8.41-8.41-8.41h-88.37c-57.11 0-82.66 26.36-82.66 63.61 0 42.98 33.66 69.63 80.85 69.63 53.2 0 98.59-34.1 98.59-85.96z" />
  <path
    d="m871.75 43.56h4.22c4.65 0 8.41 3.77 8.41 8.41v54.81c0 4.65 3.77 8.41 8.41 8.41h62.53c4.65 0 8.41 3.77 8.41 8.41v.94c0 4.65-3.77 8.41-8.41 8.41h-62.53c-4.65 0-8.41 3.77-8.41 8.41v209.08c0 36.1 15.93 46.13 55.3 46.13 6.57 0 13.15-.34 18.92-.94 4.98-.52 9.34 3.35 9.34 8.36v.17c0 4.19-3.08 7.74-7.23 8.33-6.16.88-14.34 1.56-24.63 1.56-55.6 0-72.74-18.05-72.74-68.48v-204.2c0-4.65-3.77-8.41-8.41-8.41h-33.67c-4.65 0-8.41-3.77-8.41-8.41v-.94c0-4.65 3.77-8.41 8.41-8.41h33.67c4.65 0 8.41-3.77 8.41-8.41v-54.81c0-4.65 3.77-8.41 8.41-8.41z" />
</svg>
